<mxfile host="app.diagrams.net" modified="2024-03-16T11:20:38.357Z" agent="Mozilla/5.0 (X11; Linux x86_64; rv:123.0) Gecko/20100101 Firefox/123.0" version="24.0.5" etag="1OLaLYRyVeFtVInIboXy" type="github">
  <diagram name="Page-1" id="IZp1dofmrPzV4pxGl6I9">
    <mxGraphModel>
      <root>
        <mxCell id="0" />
        <mxCell id="1" parent="0" />
      </root>
    </mxGraphModel>
  </diagram>
</mxfile>
